<svg xmlns="http://www.w3.org/2000/svg" version="1.1" width="1024px" height="1024px" style="shape-rendering:geometricPrecision; text-rendering:geometricPrecision; image-rendering:optimizeQuality; fill-rule:evenodd; clip-rule:evenodd" xmlns:xlink="http://www.w3.org/1999/xlink">
<g></g>
<g><path style="opacity:1" fill="#5a1c21" d="M 543.5,310.5 C 521.753,333.749 499.42,356.582 476.5,379C 475.906,379.464 475.239,379.631 474.5,379.5C 497.167,356.167 520.167,333.167 543.5,310.5 Z" data-index="1"></path></g>
<g><path style="opacity: 1;" fill="#fecaa1" d="M 793.5,659.5 C 762.122,707.88 719.455,742.213 665.5,762.5C 641.433,770.714 616.766,776.381 591.5,779.5C 590.036,778.84 588.369,778.507 586.5,778.5C 569.691,779.758 553.024,780.758 536.5,781.5C 526.155,780.999 515.822,780.332 505.5,779.5C 434.419,768.097 371.586,739.097 317,692.5C 316.333,691.833 316.333,691.167 317,690.5C 319.833,687.667 322.667,684.833 325.5,682C 329.677,681.855 333.677,682.355 337.5,683.5C 336.448,683.351 335.448,683.517 334.5,684C 340.13,684.966 345.796,685.633 351.5,686C 369.526,686.819 383.526,686.652 393.5,685.5C 450.432,684.86 504.432,671.86 555.5,646.5C 559.714,645.059 563.714,643.059 567.5,640.5C 534.325,669.687 497.658,694.853 457.5,716C 454.967,717.033 453.301,718.867 452.5,721.5C 453.982,723.483 455.649,725.316 457.5,727C 472.72,734.472 488.72,739.472 505.5,742C 587.27,753.544 663.603,738.544 734.5,697C 764.91,677.924 790.077,653.424 810,623.5C 810.667,624.5 810.667,625.5 810,626.5C 804.769,637.547 798.936,648.213 792.5,658.5C 792.624,659.107 792.957,659.44 793.5,659.5 Z" data-index="2"></path></g>
<g><path style="opacity: 1;" fill="#733d40" d="M 670.5,774.5 C 668.741,774.046 666.741,774.046 664.5,774.5C 664.118,771.101 662.451,768.434 659.5,766.5C 662.279,765.293 664.279,763.96 665.5,762.5C 719.455,742.213 762.122,707.88 793.5,659.5C 820.539,614.217 836.705,565.217 842,512.5C 844.102,487.802 846.268,463.135 848.5,438.5C 849.573,427.316 851.573,416.316 854.5,405.5C 841.684,392.858 830.184,379.192 820,364.5C 817.702,360.782 817.035,356.782 818,352.5C 821,348.167 824,343.833 827,339.5C 836.712,329.291 846.212,318.957 855.5,308.5C 844.303,287.615 830.303,268.782 813.5,252C 775.298,220.951 731.965,210.618 683.5,221C 654.029,229.229 628.362,243.896 606.5,265C 567.833,304.333 529.167,343.667 490.5,383C 454.135,417.7 417.468,452.033 380.5,486C 357.994,507.34 335.994,529.173 314.5,551.5C 289.626,575.281 266.126,600.281 244,626.5C 241.417,630.087 239.25,633.92 237.5,638C 238.154,639.987 239.487,641.32 241.5,642C 268.725,649.149 296.392,653.815 324.5,656C 377.79,661.947 430.457,658.614 482.5,646C 529.969,633.776 571.303,610.943 606.5,577.5C 607.397,576.402 608.23,576.402 609,577.5C 609.375,580 610.208,582.333 611.5,584.5C 611.023,585.478 610.357,586.311 609.5,587C 610.701,587.903 611.535,589.069 612,590.5C 612.837,588.993 614.004,588.493 615.5,589C 614.506,590.329 613.506,591.662 612.5,593C 612.833,593.5 613.167,594 613.5,594.5C 614.451,593.674 615.451,593.508 616.5,594C 616.507,595.583 616.174,597.249 615.5,599C 616.044,599.717 616.711,600.217 617.5,600.5C 609.66,608.505 601.327,616.005 592.5,623C 580.44,631.357 568.107,639.191 555.5,646.5C 504.432,671.86 450.432,684.86 393.5,685.5C 374.787,685.85 356.121,685.183 337.5,683.5C 333.677,682.355 329.677,681.855 325.5,682C 322.667,684.833 319.833,687.667 317,690.5C 316.333,691.167 316.333,691.833 317,692.5C 371.586,739.097 434.419,768.097 505.5,779.5C 504.798,780.631 506.132,780.964 509.5,780.5C 509.784,783.777 509.451,786.943 508.5,790C 504.474,789.837 500.474,790.337 496.5,791.5C 424.619,778.387 360.953,748.387 305.5,701.5C 274.5,727 243.5,752.5 212.5,778C 200.907,785.519 188.241,788.186 174.5,786C 151.433,782.211 130.6,773.377 112,759.5C 109.879,755.003 110.212,750.67 113,746.5C 133.36,729.735 154.86,714.568 177.5,701C 197.833,689.167 218.167,677.333 238.5,665.5C 223.27,654.407 220.436,640.741 230,624.5C 233.946,618.221 238.279,612.221 243,606.5C 281.412,565.086 320.912,524.586 361.5,485C 398.735,449.261 436.402,414.095 474.5,379.5C 475.239,379.631 475.906,379.464 476.5,379C 499.42,356.582 521.753,333.749 543.5,310.5C 565.996,284.504 590.329,260.338 616.5,238C 673.702,196.273 734.035,191.273 797.5,223C 818.532,235.697 836.032,252.197 850,272.5C 856.333,282.5 862.667,292.5 869,302.5C 874.919,310.421 882.086,316.921 890.5,322C 899.833,327 909.167,332 918.5,337C 922.941,339.442 926.774,342.608 930,346.5C 930.959,350.421 929.792,353.588 926.5,356C 913.67,364.583 900.67,372.916 887.5,381C 880.542,386.951 874.709,393.785 870,401.5C 867.236,409.985 865.236,418.652 864,427.5C 860.825,452.42 858.492,477.42 857,502.5C 851.766,559.197 835.099,612.197 807,661.5C 774.281,714.609 728.781,752.276 670.5,774.5 Z" data-index="3"></path></g>
<g><path style="opacity:1" fill="#fce9b6" d="M 337.5,683.5 C 356.121,685.183 374.787,685.85 393.5,685.5C 383.526,686.652 369.526,686.819 351.5,686C 345.796,685.633 340.13,684.966 334.5,684C 335.448,683.517 336.448,683.351 337.5,683.5 Z" data-index="4"></path></g>
<g><path style="opacity: 1;" fill="#b05d4b" d="M 631.5,543.5 C 623.914,555.414 615.581,566.747 606.5,577.5C 571.303,610.943 529.969,633.776 482.5,646C 430.457,658.614 377.79,661.947 324.5,656C 296.392,653.815 268.725,649.149 241.5,642C 239.487,641.32 238.154,639.987 237.5,638C 239.25,633.92 241.417,630.087 244,626.5C 266.126,600.281 289.626,575.281 314.5,551.5C 325.766,557.854 337.933,560.521 351,559.5C 370.982,559.304 390.482,556.137 409.5,550C 426.842,543.829 443.842,536.829 460.5,529C 483.251,515.543 505.751,501.71 528,487.5C 501.272,526.39 467.772,558.39 427.5,583.5C 424.396,588.486 425.73,591.986 431.5,594C 447.77,599.212 464.436,600.878 481.5,599C 516.567,596.38 550.567,589.047 583.5,577C 600.619,569.039 615.619,558.206 628.5,544.5C 629.325,543.614 630.325,543.281 631.5,543.5 Z" data-index="5"></path></g>
<g><path style="opacity:1" fill="#6d3539" d="M 661.5,453.5 C 671.77,496.317 664.603,535.984 640,572.5C 633.395,582.599 625.895,591.933 617.5,600.5C 616.711,600.217 616.044,599.717 615.5,599C 616.174,597.249 616.507,595.583 616.5,594C 615.451,593.508 614.451,593.674 613.5,594.5C 613.167,594 612.833,593.5 612.5,593C 613.506,591.662 614.506,590.329 615.5,589C 614.004,588.493 612.837,588.993 612,590.5C 611.535,589.069 610.701,587.903 609.5,587C 610.357,586.311 611.023,585.478 611.5,584.5C 610.208,582.333 609.375,580 609,577.5C 608.23,576.402 607.397,576.402 606.5,577.5C 615.581,566.747 623.914,555.414 631.5,543.5C 642.166,527.007 649,509.007 652,489.5C 653.075,465.458 648.575,442.458 638.5,420.5C 646.258,424.447 652.091,430.78 656,439.5C 658.126,444.08 659.96,448.747 661.5,453.5 Z" data-index="6"></path></g>
<g><path style="opacity: 1;" fill="#fee8c3" d="M 848.5,438.5 C 846.268,463.135 844.102,487.802 842,512.5C 836.705,565.217 820.539,614.217 793.5,659.5C 792.957,659.44 792.624,659.107 792.5,658.5C 798.936,648.213 804.769,637.547 810,626.5C 810.667,625.5 810.667,624.5 810,623.5C 790.077,653.424 764.91,677.924 734.5,697C 663.603,738.544 587.27,753.544 505.5,742C 488.72,739.472 472.72,734.472 457.5,727C 455.649,725.316 453.982,723.483 452.5,721.5C 453.301,718.867 454.967,717.033 457.5,716C 497.658,694.853 534.325,669.687 567.5,640.5C 563.714,643.059 559.714,645.059 555.5,646.5C 568.107,639.191 580.44,631.357 592.5,623C 601.327,616.005 609.66,608.505 617.5,600.5C 625.895,591.933 633.395,582.599 640,572.5C 664.603,535.984 671.77,496.317 661.5,453.5C 673.328,447.755 685.328,442.255 697.5,437C 685.871,430.269 675.038,422.435 665,413.5C 652.505,399.024 645.671,382.191 644.5,363C 644.698,347.464 652.364,337.797 667.5,334C 687.906,332.851 706.906,337.518 724.5,348C 735.52,355.176 746.186,362.843 756.5,371C 770.167,384 783.833,397 797.5,410C 811.959,423.94 828.959,433.44 848.5,438.5 Z" data-index="7"></path></g>
<g><path style="opacity: 1;" fill="#d5654d" d="M 848.5,438.5 C 828.959,433.44 811.959,423.94 797.5,410C 783.833,397 770.167,384 756.5,371C 746.186,362.843 735.52,355.176 724.5,348C 706.906,337.518 687.906,332.851 667.5,334C 652.364,337.797 644.698,347.464 644.5,363C 645.671,382.191 652.505,399.024 665,413.5C 675.038,422.435 685.871,430.269 697.5,437C 685.328,442.255 673.328,447.755 661.5,453.5C 659.96,448.747 658.126,444.08 656,439.5C 652.091,430.78 646.258,424.447 638.5,420.5C 648.575,442.458 653.075,465.458 652,489.5C 649,509.007 642.166,527.007 631.5,543.5C 630.325,543.281 629.325,543.614 628.5,544.5C 615.619,558.206 600.619,569.039 583.5,577C 550.567,589.047 516.567,596.38 481.5,599C 464.436,600.878 447.77,599.212 431.5,594C 425.73,591.986 424.396,588.486 427.5,583.5C 467.772,558.39 501.272,526.39 528,487.5C 505.751,501.71 483.251,515.543 460.5,529C 443.842,536.829 426.842,543.829 409.5,550C 390.482,556.137 370.982,559.304 351,559.5C 337.933,560.521 325.766,557.854 314.5,551.5C 335.994,529.173 357.994,507.34 380.5,486C 417.468,452.033 454.135,417.7 490.5,383C 529.167,343.667 567.833,304.333 606.5,265C 628.362,243.896 654.029,229.229 683.5,221C 731.965,210.618 775.298,220.951 813.5,252C 830.303,268.782 844.303,287.615 855.5,308.5C 846.212,318.957 836.712,329.291 827,339.5C 824,343.833 821,348.167 818,352.5C 817.035,356.782 817.702,360.782 820,364.5C 830.184,379.192 841.684,392.858 854.5,405.5C 851.573,416.316 849.573,427.316 848.5,438.5 Z" data-index="8"></path></g>
<g><path style="opacity:1" fill="#733d42" d="M 765.5,312.5 C 785.31,310.813 794.81,319.813 794,339.5C 786.313,356.377 774.48,360.21 758.5,351C 747.33,335.696 749.663,322.863 765.5,312.5 Z" data-index="9"></path></g>
<g><path style="opacity:1" fill="#6a3236" d="M 665.5,762.5 C 664.279,763.96 662.279,765.293 659.5,766.5C 662.451,768.434 664.118,771.101 664.5,774.5C 666.741,774.046 668.741,774.046 670.5,774.5C 628.909,789.743 585.909,796.91 541.5,796C 545.68,798.696 549.68,801.53 553.5,804.5C 550.577,803.705 547.91,802.372 545.5,800.5C 545.704,801.529 545.204,802.529 544,803.5C 543.667,803.167 543.333,802.833 543,802.5C 541,803.167 539,803.833 537,804.5C 536.692,803.692 536.192,803.025 535.5,802.5C 533.289,803.123 531.289,804.123 529.5,805.5C 527.899,804.835 526.399,804.501 525,804.5C 523.918,806.618 522.751,808.618 521.5,810.5C 514.21,806.543 508.543,800.876 504.5,793.5C 501.87,792.619 499.203,791.952 496.5,791.5C 500.474,790.337 504.474,789.837 508.5,790C 509.451,786.943 509.784,783.777 509.5,780.5C 506.132,780.964 504.798,780.631 505.5,779.5C 515.822,780.332 526.155,780.999 536.5,781.5C 554.883,781.892 573.217,781.225 591.5,779.5C 616.766,776.381 641.433,770.714 665.5,762.5 Z" data-index="10"></path></g>
<g><path style="opacity:1" fill="#f7e0af" d="M 591.5,779.5 C 573.217,781.225 554.883,781.892 536.5,781.5C 553.024,780.758 569.691,779.758 586.5,778.5C 588.369,778.507 590.036,778.84 591.5,779.5 Z" data-index="11"></path></g>
<g><path style="opacity:1" fill="#733d41" d="M 553.5,804.5 C 556.475,805.911 559.642,806.577 563,806.5C 590.49,805.381 617.99,805.214 645.5,806C 655.599,806.586 665.599,807.919 675.5,810C 685.707,812.184 690.541,818.351 690,828.5C 687.874,830.377 685.374,831.377 682.5,831.5C 621.65,830.184 560.65,830.184 499.5,831.5C 498.883,831.389 498.383,831.056 498,830.5C 496.574,825.243 497.741,820.743 501.5,817C 508.239,814.726 514.905,812.559 521.5,810.5C 522.751,808.618 523.918,806.618 525,804.5C 526.399,804.501 527.899,804.835 529.5,805.5C 531.289,804.123 533.289,803.123 535.5,802.5C 536.192,803.025 536.692,803.692 537,804.5C 539,803.833 541,803.167 543,802.5C 543.333,802.833 543.667,803.167 544,803.5C 545.204,802.529 545.704,801.529 545.5,800.5C 547.91,802.372 550.577,803.705 553.5,804.5 Z" data-index="12"></path></g>
<g><path style="opacity:1" fill="#520e12" d="M 682.5,831.5 C 621.312,831.533 560.312,831.533 499.5,831.5C 560.65,830.184 621.65,830.184 682.5,831.5 Z" data-index="13"></path></g>
</svg>